<svg width="15" height="25" viewBox="0 0 15 25" fill="none" xmlns="http://www.w3.org/2000/svg">
<path d="M2.68639 15.4073C2.69056 15.4177 2.78848 15.6875 2.84369 15.8198C3.15098 16.5458 3.59264 17.201 4.1541 17.7625C5.01353 18.6248 6.11119 19.2105 7.30604 19.4442C8.50088 19.6779 9.73831 19.549 10.8593 19.0739C12.3262 18.4536 13.4936 17.2859 14.1135 15.8187C14.4329 15.066 14.5963 14.2562 14.5937 13.4385C14.5937 12.6125 14.4343 11.8104 14.1135 11.0562C13.8064 10.3306 13.3617 9.67125 12.8041 9.11457C12.2366 8.54602 11.5624 8.09509 10.8202 7.78764C10.078 7.48019 9.28244 7.32226 8.4791 7.3229C7.65036 7.3213 6.82958 7.48454 6.06452 7.80311C5.47077 8.05415 4.46452 8.70103 3.87494 9.30936L3.87285 9.31144V4.27811H12.3281C12.6354 4.27499 12.6354 3.84374 12.6354 3.70519C12.6354 3.56249 12.6354 3.13332 12.327 3.12915H3.18431C3.07775 3.12887 2.97542 3.17079 2.89969 3.24575C2.82395 3.32071 2.78097 3.4226 2.78014 3.52915V10.6135C2.78014 10.8437 3.06452 11.0083 3.3291 11.0656C3.84577 11.1739 3.96452 11.0104 4.0916 10.8344L4.10723 10.8125C4.30202 10.526 4.90619 9.91874 4.91035 9.91353C5.37554 9.44718 5.9287 9.07786 6.53774 8.82698C7.14679 8.5761 7.79959 8.44867 8.45827 8.45207C9.11499 8.4494 9.76569 8.57722 10.3726 8.8281C10.9795 9.07899 11.5305 9.44793 11.9937 9.91353C12.4596 10.3748 12.8291 10.924 13.0809 11.5293C13.3327 12.1347 13.4617 12.784 13.4604 13.4396C13.4604 14.7729 12.9416 16.026 12.002 16.9656C11.0545 17.9022 9.77593 18.4273 8.44369 18.4271C7.55555 18.4303 6.68357 18.1896 5.92285 17.7312L5.92702 13.4219C5.92702 12.8469 6.17494 12.2229 6.59369 11.751C6.82453 11.4872 7.10935 11.2759 7.42887 11.1316C7.74839 10.9873 8.09517 10.9133 8.44577 10.9146C9.14056 10.9146 9.79056 11.1792 10.2729 11.6583C10.752 12.1323 11.0166 12.7667 11.0166 13.4406C11.0198 13.7795 10.9553 14.1157 10.8268 14.4294C10.6983 14.743 10.5085 15.0278 10.2684 15.2671C10.0284 15.5064 9.74295 15.6953 9.42888 15.8228C9.11481 15.9502 8.77844 16.0137 8.43952 16.0094C8.16035 16.0094 7.65514 15.8875 7.63431 15.8812C7.3416 15.7937 7.21764 16.1989 7.17702 16.3344C7.01973 16.8469 7.25723 16.9489 7.3041 16.9635C7.77077 17.1073 8.07598 17.1344 8.47494 17.1344C9.45598 17.1333 10.3965 16.7429 11.09 16.049C11.7835 15.3551 12.1733 14.4144 12.1739 13.4333C12.1739 11.4094 10.5156 9.7604 8.47806 9.7604C7.48992 9.75598 6.5402 10.1428 5.83639 10.8364C5.16556 11.4948 4.78119 12.376 4.78119 13.25V13.2719C4.77702 13.3812 4.77702 15.9625 4.77598 16.8114L4.77077 16.8052C4.38744 16.3812 4.00931 15.7333 3.75723 15.0677C3.65619 14.8073 3.43535 14.8531 3.13119 14.9469C2.99889 14.9885 2.59577 15.1125 2.68431 15.4031L2.68639 15.4073V15.4073ZM7.03223 14.3948C7.03431 14.5177 7.14785 14.6271 7.21452 14.6927L7.23639 14.7125C7.35202 14.8271 7.46244 14.8833 7.56452 14.8833C7.64889 14.8833 7.69994 14.8448 7.71869 14.8271C7.77077 14.7792 8.34785 14.1937 8.4041 14.1375L9.04785 14.7812C9.10827 14.8479 9.17285 14.8823 9.24785 14.8833C9.35202 14.8833 9.46348 14.8229 9.58119 14.7021C9.85931 14.4187 9.72077 14.2646 9.65306 14.1917L8.99889 13.5354L9.68119 12.85C9.83119 12.6885 9.69889 12.5167 9.56556 12.3854C9.37494 12.1937 9.1916 12.1458 9.07181 12.2531L8.39473 12.9323L7.71035 12.2469C7.67453 12.2125 7.62669 12.1934 7.57702 12.1937C7.48639 12.1937 7.37806 12.2562 7.25619 12.3781C7.04577 12.5875 6.99994 12.7333 7.10931 12.85L7.79369 13.5333L7.11348 14.2156C7.06373 14.2622 7.03451 14.3267 7.03223 14.3948V14.3948ZM8.52598 5.13332C7.4291 5.13332 6.26452 5.35311 5.40931 5.7229C5.36498 5.73905 5.3264 5.76793 5.29842 5.80592C5.27044 5.84391 5.2543 5.88932 5.25202 5.93644C5.24056 6.03332 5.26556 6.16144 5.33119 6.32915C5.38431 6.46561 5.52598 6.82707 5.79889 6.72082C6.67007 6.38791 7.59342 6.21227 8.52598 6.20207C9.52598 6.20207 10.4968 6.3979 11.4093 6.78332C12.1343 7.09165 12.8197 7.53436 13.5635 8.18019C13.6097 8.22475 13.6712 8.25007 13.7354 8.25103C13.8791 8.25103 14.0176 8.10832 14.1374 7.97394C14.3364 7.75103 14.4718 7.56561 14.2781 7.38124C13.5648 6.70744 12.7336 6.17072 11.826 5.7979C10.7819 5.35664 9.65948 5.1306 8.52598 5.13332V5.13332ZM14.4301 18.6604C14.2979 18.5292 14.1854 18.4531 14.0864 18.4229C14.0421 18.4081 13.9944 18.406 13.949 18.4168C13.9035 18.4277 13.862 18.4511 13.8291 18.4844L13.7635 18.5489C13.0782 19.2371 12.2635 19.7829 11.3664 20.1549C10.4694 20.5269 9.50756 20.7178 8.53639 20.7167C7.56505 20.717 6.60319 20.5256 5.70588 20.1537C4.80858 19.7817 3.99347 19.2364 3.30723 18.5489C2.62616 17.8808 2.08724 17.0818 1.72285 16.2C1.5023 15.665 1.34093 15.1075 1.2416 14.5375C1.23744 14.5187 1.23639 14.5052 1.23223 14.4948C1.18639 14.2531 0.964519 14.2354 0.644727 14.2844C0.512436 14.3042 0.106185 14.3656 0.145769 14.6573L0.147852 14.6635C0.427587 16.4318 1.26223 18.0653 2.53119 19.3281C3.30369 20.1043 4.22009 20.7224 5.2291 21.1479C6.2752 21.5914 7.40016 21.8189 8.53639 21.8167C9.67174 21.819 10.7958 21.5912 11.8406 21.1469C12.8801 20.7081 13.8214 20.066 14.6093 19.2583C14.6958 19.1646 14.7697 19 14.4301 18.6604" fill="#7E7E7E"/>
</svg>
