<svg width="25" height="15" viewBox="0 0 25 15" fill="none" xmlns="http://www.w3.org/2000/svg">
<g clip-path="url(#clip0)">
<path d="M19.5312 12.3047C18.0176 12.3047 16.7277 11.7716 15.6616 10.7056C14.5955 9.63949 14.0625 8.34961 14.0625 6.83594C14.0625 5.32227 14.5955 4.03239 15.6616 2.96631C16.7277 1.90023 18.0176 1.36719 19.5312 1.36719C21.0449 1.36719 22.3348 1.90023 23.4009 2.96631C24.467 4.03239 25 5.32227 25 6.83594C25 8.34961 24.467 9.63949 23.4009 10.7056C22.3348 11.7716 21.0449 12.3047 19.5312 12.3047ZM19.5312 2.92969C18.457 2.92969 17.5374 3.31217 16.7725 4.07715C16.0075 4.84212 15.625 5.76172 15.625 6.83594C15.625 7.91016 16.0075 8.82975 16.7725 9.59473C17.5374 10.3597 18.457 10.7422 19.5312 10.7422C20.6055 10.7422 21.5251 10.3597 22.29 9.59473C23.055 8.82975 23.4375 7.91016 23.4375 6.83594C23.4375 5.76172 23.055 4.84212 22.29 4.07715C21.5251 3.31217 20.6055 2.92969 19.5312 2.92969ZM5.46875 12.3047C3.95508 12.3047 2.6652 11.7716 1.59912 10.7056C0.53304 9.63949 0 8.34961 0 6.83594C0 5.32227 0.53304 4.03239 1.59912 2.96631C2.6652 1.90023 3.95508 1.36719 5.46875 1.36719C6.98242 1.36719 8.2723 1.90023 9.33838 2.96631C10.4045 4.03239 10.9375 5.32227 10.9375 6.83594C10.9375 8.34961 10.4045 9.63949 9.33838 10.7056C8.2723 11.7716 6.98242 12.3047 5.46875 12.3047Z" fill="#7E7E7E"/>
</g>
<defs>
<clipPath id="clip0">
<rect width="25" height="14.9902" fill="white"/>
</clipPath>
</defs>
</svg>
