<svg width="18" height="17" viewBox="0 0 18 17" fill="none" xmlns="http://www.w3.org/2000/svg">
<path d="M16.9401 0H1.30012C0.923992 0 0.620117 0.303875 0.620117 0.68V16.32C0.620117 16.6961 0.923992 17 1.30012 17H16.9401C17.3162 17 17.6201 16.6961 17.6201 16.32V0.68C17.6201 0.303875 17.3162 0 16.9401 0ZM14.9766 4.96188H13.6187C12.5541 4.96188 12.348 5.46762 12.348 6.21137V7.84975H14.8895L14.558 10.4146H12.348V17H9.69812V10.4168H7.48174V7.84975H9.69812V5.9585C9.69812 3.76337 11.039 2.567 12.9982 2.567C13.9375 2.567 14.7429 2.63713 14.9787 2.669V4.96188H14.9766Z" fill="black"/>
</svg>
