<svg width="20" height="19" viewBox="0 0 20 19" fill="none" xmlns="http://www.w3.org/2000/svg">
<path d="M9.50059 0C4.26238 0 0 4.2612 0 9.5C0 14.7388 4.26238 19 9.50059 19C14.7388 19 19.0012 14.7388 19.0012 9.5C19.0012 4.2612 14.7388 0 9.50059 0ZM9.50059 18.3672C4.61135 18.3672 0.633965 14.3892 0.633965 9.5C0.633965 4.61077 4.61135 0.63278 9.50059 0.63278C14.3898 0.63278 18.3672 4.61077 18.3672 9.5C18.3672 14.3892 14.3898 18.3672 9.50059 18.3672Z" fill="#7E7E7E"/>
<path d="M11.5742 4.16738H9.99343C7.98015 4.14723 7.72301 5.39324 7.72301 6.74175V7.72232H6.83427C6.7941 7.71696 6.75324 7.72092 6.71485 7.73391C6.67646 7.7469 6.64159 7.76857 6.61293 7.79722C6.58427 7.82588 6.56261 7.86076 6.54962 7.89914C6.53663 7.93753 6.53266 7.9784 6.53803 8.01857V9.79604C6.53266 9.83621 6.53663 9.87707 6.54962 9.91546C6.56261 9.95385 6.58427 9.98873 6.61293 10.0174C6.64159 10.046 6.67646 10.0677 6.71485 10.0807C6.75324 10.0937 6.7941 10.0977 6.83427 10.0923H7.72301V14.536C7.71807 14.5762 7.7224 14.617 7.73566 14.6554C7.74892 14.6937 7.77076 14.7284 7.79951 14.757C7.82826 14.7856 7.86317 14.8072 7.90156 14.8203C7.93996 14.8333 7.98082 14.8374 8.02103 14.8322H9.83109C10.0059 14.8524 10.1475 14.7107 10.0918 14.536L10.093 10.0923H11.5742C11.6144 10.0977 11.6552 10.0937 11.6936 10.0807C11.732 10.0677 11.7669 10.046 11.7955 10.0174C11.8242 9.98873 11.8459 9.95385 11.8589 9.91546C11.8718 9.87707 11.8758 9.83621 11.8704 9.79604V8.01857C11.8758 7.9784 11.8718 7.93753 11.8589 7.89914C11.8459 7.86076 11.8242 7.82588 11.7955 7.79722C11.7669 7.76857 11.732 7.7469 11.6936 7.73391C11.6552 7.72092 11.6144 7.71696 11.5742 7.72232H10.0912L10.093 6.83359C10.1504 6.45498 10.1504 6.5166 10.5018 6.53734H11.5618C11.6441 6.51897 11.7318 6.52905 11.7934 6.4692C11.855 6.40936 11.8906 6.3276 11.8699 6.24109V4.46362C11.8753 4.42349 11.8714 4.38263 11.8585 4.34423C11.8456 4.30584 11.824 4.27095 11.7954 4.24228C11.7668 4.2136 11.7319 4.19193 11.6936 4.17894C11.6552 4.16594 11.6143 4.16199 11.5742 4.16738V4.16738ZM11.2572 5.91167L10.5142 5.88323C9.5941 5.88323 9.51707 6.3827 9.51707 6.89402L9.5147 8.01738C9.51462 8.05898 9.52275 8.10019 9.53861 8.13864C9.55448 8.1771 9.57777 8.21204 9.60716 8.24149C9.63655 8.27093 9.67145 8.29429 9.70988 8.31022C9.7483 8.32616 9.78949 8.33436 9.83109 8.33436H11.278V9.47906H9.83228C9.74831 9.47906 9.66777 9.51237 9.60834 9.57169C9.54892 9.63101 9.51545 9.71148 9.51529 9.79545L9.5147 14.2397H8.3155V9.79604C8.3155 9.62125 8.19641 9.47965 8.02103 9.47965H7.13052V8.33496H8.02103C8.0626 8.33502 8.10378 8.32689 8.14221 8.31103C8.18064 8.29517 8.21557 8.27189 8.24499 8.24253C8.30424 8.18269 8.31491 8.10211 8.31491 8.01797V6.74116C8.31491 5.41279 8.58331 4.78001 9.99284 4.78001H11.2566V5.91167H11.2572Z" fill="#7E7E7E"/>
</svg>
