<svg width="18" height="17" viewBox="0 0 18 17" fill="none" xmlns="http://www.w3.org/2000/svg">
<path d="M12.8649 0.379883H5.37535C2.95868 0.379883 1 2.33891 1 4.75523V12.2448C1 14.6615 2.95903 16.6202 5.37569 16.6202H12.8646C15.2813 16.6202 17.2403 14.6611 17.2403 12.2445V4.75523C17.2403 2.33856 15.2813 0.379883 12.8646 0.379883H12.8649Z" stroke="black" stroke-width="0.5" stroke-miterlimit="10"/>
<path d="M9.12009 12.4201C11.2851 12.4201 13.0402 10.665 13.0402 8.49997C13.0402 6.33494 11.2851 4.57983 9.12009 4.57983C6.95506 4.57983 5.19995 6.33494 5.19995 8.49997C5.19995 10.665 6.95506 12.4201 9.12009 12.4201Z" stroke="black" stroke-width="0.5" stroke-miterlimit="10"/>
<path d="M13.8802 4.57976C14.3441 4.57976 14.7201 4.20371 14.7201 3.73983C14.7201 3.27595 14.3441 2.8999 13.8802 2.8999C13.4163 2.8999 13.0403 3.27595 13.0403 3.73983C13.0403 4.20371 13.4163 4.57976 13.8802 4.57976Z" fill="black"/>
</svg>
