<svg width="25" height="25" viewBox="0 0 25 25" fill="none" xmlns="http://www.w3.org/2000/svg">
<path d="M16.2448 4.37985H8.75523C6.33856 4.37985 4.37988 6.33888 4.37988 8.7552V16.2448C4.37988 18.6614 6.33891 20.6201 8.75558 20.6201H16.2445C18.6611 20.6201 20.6202 18.6611 20.6202 16.2444V8.7552C20.6202 6.33853 18.6611 4.37985 16.2445 4.37985H16.2448Z" stroke="#7E7E7E" stroke-width="0.5" stroke-miterlimit="10"/>
<path d="M12.5 16.4201C14.665 16.4201 16.4201 14.665 16.4201 12.5C16.4201 10.335 14.665 8.57986 12.5 8.57986C10.3349 8.57986 8.57983 10.335 8.57983 12.5C8.57983 14.665 10.3349 16.4201 12.5 16.4201Z" stroke="#7E7E7E" stroke-width="0.5" stroke-miterlimit="10"/>
<path d="M17.2601 8.57986C17.724 8.57986 18.1 8.20381 18.1 7.73993C18.1 7.27604 17.724 6.89999 17.2601 6.89999C16.7962 6.89999 16.4202 7.27604 16.4202 7.73993C16.4202 8.20381 16.7962 8.57986 17.2601 8.57986Z" fill="#7E7E7E"/>
</svg>
