<svg width="82" height="128" viewBox="0 0 82 128" fill="none" xmlns="http://www.w3.org/2000/svg">
<g filter="url(#filter0_d)">
<path d="M34.3875 52.5208L34.4958 58.1542C35.2181 63.9681 38.45 66.875 44.1917 66.875C44.4806 66.875 45.1667 66.8028 46.25 66.6583C47.3333 66.5139 48.0014 66.4056 48.2542 66.3333C47.5681 67.3806 45.7806 67.9042 42.8917 67.9042C40.0028 67.9042 37.7819 67.1819 36.2292 65.7375C34.7125 64.3292 33.6111 62.1444 32.925 59.1833L32.8708 52.7917C32.8708 50.3 33.1417 46.6167 33.6833 41.7417C34.225 36.8667 34.4958 33.2014 34.4958 30.7458V27.3875L17.0542 43.8L16.025 52.0333C15.7722 54.2361 14.8694 56.4931 13.3167 58.8042C11.8 61.1153 10.0486 62.2708 8.0625 62.2708C7.0875 62.2708 6.275 61.9278 5.625 61.2417C4.975 60.5556 4.66806 59.6889 4.70417 58.6417C4.88472 56.7639 5.60694 54.7417 6.87083 52.575C8.17083 50.3722 9.38056 48.6389 10.5 47.375C11.6556 46.1111 13.1361 44.5764 14.9417 42.7708C15.0139 42.4097 15.05 41.3444 15.05 39.575C15.05 37.7694 14.6889 35.2597 13.9667 32.0458C13.8583 31.6847 13.5153 31.5042 12.9375 31.5042C12.9014 31.5042 12.7389 31.5222 12.45 31.5583C9.92222 33.5444 7.50278 34.5375 5.19167 34.5375C5.19167 33.8153 5.37222 33.3639 5.73333 33.1833C5.87778 33.1111 6.1125 33.0208 6.4375 32.9125C6.79861 32.7681 7.12361 32.6417 7.4125 32.5333C7.7375 32.425 8.76667 31.9194 10.5 31.0167C12.2694 30.0778 13.2625 29.5722 13.4792 29.5L13.9667 29.4458C14.3639 29.4458 14.7069 29.6083 14.9958 29.9333C15.2847 30.2222 15.4653 30.5833 15.5375 31.0167L17.1083 41.6875L35.4708 23.8667L36.5 24.8417L36.7167 27.9833C36.7167 30.7278 36.3194 34.8083 35.525 40.225C34.7667 45.6417 34.3875 49.7403 34.3875 52.5208ZM11.475 48.9458C10.2111 50.2097 9.09167 51.7083 8.11667 53.4417C7.17778 55.175 6.70833 56.8361 6.70833 58.425C6.70833 59.9778 7.06944 60.7542 7.79167 60.7542C9.05556 60.7542 10.1931 60.1764 11.2042 59.0208C12.2153 57.8292 12.9917 56.3847 13.5333 54.6875C14.5806 51.2208 15.1042 48.2778 15.1042 45.8583H14.5083C14.4361 45.8583 13.9847 46.2736 13.1542 47.1042C12.3597 47.9347 11.8 48.5486 11.475 48.9458Z" fill="#FAFAFA"/>
<path d="M58.295 89.675L56.2366 75.8625C56.2366 75.8264 56.2366 75.7903 56.2366 75.7542C56.2366 75.718 56.2186 75.6819 56.1825 75.6458C56.1103 75.5736 55.9658 75.4653 55.7491 75.3208L55.3158 76.2958C54.3769 80.0514 53.7089 82.6333 53.3116 84.0417C52.0116 88.8444 50.4589 93.0875 48.6533 96.7708C48.5811 96.9875 48.4908 97.1319 48.3825 97.2042C48.2741 97.2403 48.2019 97.2764 48.1658 97.3125C48.1297 97.3486 48.0394 97.3667 47.895 97.3667H47.2991C45.4214 97.3667 43.9769 94.8028 42.9658 89.675C42.6408 88.05 42.4783 86.1722 42.4783 84.0417L42.695 62.5375H41.395L34.7866 65.5708C34.4978 65.5708 34.0644 65.6792 33.4866 65.8958C32.945 66.0764 32.6561 66.1667 32.62 66.1667H32.4575C31.5908 66.1667 31.1575 65.8958 31.1575 65.3542C31.1575 64.9208 31.3561 64.668 31.7533 64.5958C31.7533 64.5958 32.7644 64.4333 34.7866 64.1083C35.1839 63.8555 36.5741 63.2236 38.9575 62.2125C41.3408 61.2014 42.6769 60.6236 42.9658 60.4792L43.5075 60.425C44.1936 60.425 44.5366 60.8403 44.5366 61.6708C44.5366 63.2597 44.3561 65.643 43.995 68.8208C43.6339 71.9986 43.4533 74.3639 43.4533 75.9167L43.5075 77.8667C43.5075 78.6972 43.6339 80.6653 43.8866 83.7708C44.1755 86.8403 44.3922 88.8083 44.5366 89.675C44.6811 90.5417 45.0241 91.6972 45.5658 93.1417C46.1075 94.5861 46.6853 95.3083 47.2991 95.3083C47.6964 95.3083 47.9672 95.1278 48.1116 94.7667L55.7491 71.2042L56.2908 70.7167C56.9047 71.1139 57.2478 71.6194 57.32 72.2333L59.92 89.1333C60.0644 90.8667 60.895 92.7625 62.4116 94.8208C63.9283 96.8792 65.5172 97.9083 67.1783 97.9083C67.8283 97.9083 68.4783 97.6375 69.1283 97.0958C69.7783 96.518 70.338 95.7778 70.8075 94.875C71.7103 93.1055 72.3241 91.6972 72.6491 90.65C73.8047 87.8694 74.7797 84.7639 75.5741 81.3333C76.4047 77.9028 76.82 75.0861 76.82 72.8833C76.82 70.6444 76.5311 68.5139 75.9533 66.4917C75.4116 64.4333 74.4366 62.5736 73.0283 60.9125C71.62 59.2153 69.9769 58.3667 68.0991 58.3667C67.088 58.3667 66.5644 58.3847 66.5283 58.4208L65.4991 58.9625C65.4269 58.9625 65.3186 58.8903 65.1741 58.7458C65.0658 58.6014 65.0297 58.475 65.0658 58.3667C65.1019 58.2222 65.1561 58.0778 65.2283 57.9333C65.3005 57.7528 65.3908 57.6083 65.4991 57.5C65.6075 57.3917 65.6978 57.3014 65.77 57.2292C65.8422 57.1208 65.9686 57.0486 66.1491 57.0125C66.3297 56.9764 66.4561 56.9403 66.5283 56.9042C66.6005 56.8319 66.8353 56.7958 67.2325 56.7958H68.2075C70.013 56.7958 71.5839 57.3194 72.92 58.3667C74.2561 59.3778 75.2672 60.6958 75.9533 62.3208C76.6394 63.9458 77.1269 65.5889 77.4158 67.25C77.7408 68.875 77.9033 70.5 77.9033 72.125C77.9033 73.75 77.6505 76.043 77.145 79.0042C76.6755 81.9292 76.0255 84.9986 75.195 88.2125C74.3644 91.3903 73.2269 94.1528 71.7825 96.5C70.3741 98.8111 68.8755 99.9667 67.2866 99.9667C65.0116 99.9667 63.0616 98.8833 61.4366 96.7167C59.8116 94.5139 58.7644 92.1667 58.295 89.675Z" fill="#FAFAFA"/>
</g>
<defs>
<filter id="filter0_d" x="0.701294" y="23.8667" width="81.202" height="84.1" filterUnits="userSpaceOnUse" color-interpolation-filters="sRGB">
<feFlood flood-opacity="0" result="BackgroundImageFix"/>
<feColorMatrix in="SourceAlpha" type="matrix" values="0 0 0 0 0 0 0 0 0 0 0 0 0 0 0 0 0 0 127 0"/>
<feOffset dy="4"/>
<feGaussianBlur stdDeviation="2"/>
<feColorMatrix type="matrix" values="0 0 0 0 0 0 0 0 0 0 0 0 0 0 0 0 0 0 0.25 0"/>
<feBlend mode="normal" in2="BackgroundImageFix" result="effect1_dropShadow"/>
<feBlend mode="normal" in="SourceGraphic" in2="effect1_dropShadow" result="shape"/>
</filter>
</defs>
</svg>
