<svg width="46" height="9" viewBox="0 0 46 9" fill="none" xmlns="http://www.w3.org/2000/svg">
<path d="M23.3484 7.8903C23.3484 8.04631 23.3484 8.0819 23.4539 8.17814L24.0441 8.76041V8.78546H21.4263V7.66618C21.2998 8.02449 21.0645 8.33427 20.7533 8.55216C20.442 8.77005 20.0704 8.88512 19.6904 8.88126C18.3453 8.88126 17.3684 7.81559 17.3684 5.85477C17.3684 4.01788 18.4226 2.79226 19.9018 2.79226C20.2229 2.77285 20.5421 2.85417 20.8147 3.02489C21.0874 3.19561 21.3 3.4472 21.4227 3.74454V1.27528C21.4324 1.2194 21.4263 1.16194 21.4053 1.10928C21.3843 1.05661 21.3491 1.01079 21.3037 0.976895L20.7412 0.429781V0.405172L23.3484 0.0957995V7.8903ZM21.4263 7.53479V3.85089C21.3333 3.73372 21.2147 3.63949 21.0795 3.57548C20.9443 3.51148 20.7962 3.47941 20.6467 3.48175C20.0104 3.48175 19.3956 4.06402 19.3956 5.79413C19.3956 7.41394 19.926 7.9861 20.5865 7.9861C20.7521 7.98242 20.9146 7.93961 21.0605 7.86117C21.2065 7.78274 21.3318 7.6709 21.4263 7.53479V7.53479ZM25.0838 8.78546V3.81178C25.0921 3.75721 25.0868 3.70144 25.0684 3.6494C25.05 3.59736 25.019 3.55065 24.9783 3.51339L24.3987 2.90959V2.88454H27.0161V7.92941C27.0161 8.08542 27.0161 8.12101 27.1215 8.21681L27.6981 8.76393V8.78897L25.0838 8.78546ZM24.9889 1.06566C24.9889 0.476802 25.4608 0 26.0431 0C26.6254 0 27.0969 0.477241 27.0969 1.06566C27.0969 1.65452 26.6254 2.13133 26.0431 2.13133C25.4608 2.13133 24.9889 1.65452 24.9889 1.06566ZM34.078 7.87976C34.078 8.03576 34.078 8.0819 34.1835 8.17814L34.7736 8.76041V8.78546H32.1422V7.51018C32.0277 7.90127 31.791 8.24539 31.4666 8.49213C31.1423 8.73887 30.7475 8.87524 30.34 8.88126C29.1733 8.88126 28.548 8.0217 28.548 6.39442C28.548 5.60956 28.548 4.74956 28.5726 3.78365C28.5821 3.73063 28.5774 3.67603 28.5588 3.62545C28.5403 3.57487 28.5086 3.53012 28.4671 3.49581L27.8879 2.90915V2.8841H30.4846V6.12767C30.4846 7.19334 30.6389 7.90392 31.2994 7.90392C31.4746 7.89254 31.6441 7.83753 31.7926 7.74389C31.9411 7.65026 32.0639 7.52097 32.1497 7.3678V3.81485C32.158 3.76028 32.1527 3.70451 32.1343 3.65248C32.1159 3.60044 32.0849 3.55372 32.0442 3.51647L31.4611 2.90915V2.8841H34.0784V7.87932L34.078 7.87976ZM42.9883 8.78502C42.9883 8.59342 43.0234 6.14964 43.0234 5.58803C43.0234 4.52237 42.8582 3.78717 42.1168 3.78717C41.9323 3.79316 41.7518 3.84261 41.59 3.93149C41.4282 4.02037 41.2897 4.14618 41.1856 4.29869C41.26 4.63094 41.2954 4.97073 41.2911 5.31118C41.2911 6.04989 41.2665 6.99119 41.256 7.93293C41.2464 7.98595 41.2512 8.04055 41.2697 8.09113C41.2882 8.14171 41.3199 8.18646 41.3614 8.22077L41.9516 8.76788V8.79249H39.3096C39.3096 8.61495 39.3448 6.15668 39.3448 5.59506C39.3448 4.51182 39.1796 3.7942 38.4488 3.7942C38.0884 3.80738 37.7597 4.00514 37.5773 4.31978V7.94348C37.5773 8.09992 37.5773 8.13551 37.6828 8.23131L38.2589 8.77843V8.80304H35.6451V3.8298C35.6534 3.77515 35.6482 3.7193 35.6298 3.66718C35.6114 3.61505 35.5804 3.56827 35.5396 3.53097L34.96 2.90959V2.88454H37.5778V4.14928C37.8208 3.31432 38.5942 2.75359 39.4542 2.78874C40.3252 2.78874 40.9158 3.27917 41.165 4.20992C41.2974 3.79353 41.5601 3.43068 41.9143 3.17483C42.2685 2.91897 42.6955 2.78363 43.1324 2.78874C44.2991 2.78874 44.9596 3.65885 44.9596 5.30371C44.9596 6.089 44.935 6.98416 44.9245 7.92546C44.9144 7.97986 44.9203 8.03602 44.9415 8.08712C44.9627 8.13822 44.9983 8.18205 45.044 8.2133L45.6201 8.76041V8.78546H42.9887L42.9883 8.78502ZM10.1065 8.01115L10.8826 8.76041V8.78546H6.94423V8.76041L7.73479 8.01115C7.77633 7.97684 7.80798 7.9321 7.82652 7.88152C7.84505 7.83093 7.84979 7.77633 7.84026 7.72331V2.93068C7.84026 2.72854 7.84026 2.45476 7.87542 2.22053L5.21939 8.88126H5.18775L2.4368 2.75315C2.37659 2.60066 2.35902 2.58967 2.32034 2.48684V6.50472C2.28737 6.77355 2.33253 7.04618 2.45042 7.29002L3.55739 8.76041V8.78546H0.620117V8.76041L1.72665 7.28606C1.8436 7.04334 1.88873 6.77224 1.85673 6.50472V2.06409C1.87501 1.84593 1.81001 1.62895 1.67479 1.45677L0.890818 0.429781V0.405172H3.70153L6.05522 5.59506L8.1281 0.405172H10.8791V0.429781L10.1065 1.29989C10.0609 1.33377 10.0256 1.37964 10.0045 1.43239C9.98336 1.48515 9.97731 1.54272 9.98697 1.59871V7.72331C9.97688 7.77771 9.9828 7.83387 10.004 7.88497C10.0252 7.93607 10.0608 7.9799 10.1065 8.01115V8.01115ZM13.1875 5.60956V5.63417C13.1875 7.15467 13.964 7.7655 14.8741 7.7655C15.2472 7.77754 15.6158 7.68005 15.9342 7.48505C16.2525 7.29005 16.5069 7.00608 16.6657 6.66819H16.6903C16.3739 8.17111 15.4537 8.88126 14.0765 8.88126C12.5903 8.88126 11.1884 7.97556 11.1884 5.87587C11.1884 3.66984 12.5938 2.78874 14.1468 2.78874C15.3975 2.78874 16.729 3.38551 16.729 5.30415V5.60956H13.1875V5.60956ZM13.1875 5.30415H14.9198V4.99477C14.9198 3.43165 14.5999 3.01594 14.1187 3.01594C13.5355 3.01594 13.1804 3.63776 13.1804 5.30415H13.1875V5.30415Z" fill="black"/>
</svg>
