<svg width="45" height="9" viewBox="0 0 45 9" fill="none" xmlns="http://www.w3.org/2000/svg">
<path d="M22.7283 7.8903C22.7283 8.04631 22.7283 8.0819 22.8338 8.17814L23.4239 8.76041V8.78546H20.8061V7.66618C20.6797 8.02449 20.4444 8.33427 20.1331 8.55216C19.8219 8.77005 19.4503 8.88512 19.0703 8.88126C17.7252 8.88126 16.7483 7.81559 16.7483 5.85477C16.7483 4.01788 17.8025 2.79226 19.2817 2.79226C19.6028 2.77285 19.922 2.85417 20.1946 3.02489C20.4673 3.19561 20.6798 3.4472 20.8026 3.74454V1.27528C20.8123 1.2194 20.8062 1.16194 20.7852 1.10928C20.7642 1.05661 20.729 1.01079 20.6835 0.976895L20.121 0.429781V0.405172L22.7283 0.0957995V7.8903ZM20.8061 7.53479V3.85089C20.7132 3.73372 20.5945 3.63949 20.4594 3.57548C20.3242 3.51148 20.1761 3.47941 20.0266 3.48175C19.3902 3.48175 18.7755 4.06402 18.7755 5.79413C18.7755 7.41394 19.3059 7.9861 19.9664 7.9861C20.132 7.98242 20.2944 7.93961 20.4404 7.86117C20.5863 7.78274 20.7117 7.6709 20.8061 7.53479V7.53479ZM24.4637 8.78546V3.81178C24.4719 3.75721 24.4666 3.70144 24.4483 3.6494C24.4299 3.59736 24.3989 3.55065 24.3582 3.51339L23.7786 2.90959V2.88454H26.3959V7.92941C26.3959 8.08542 26.3959 8.12101 26.5014 8.21681L27.078 8.76393V8.78897L24.4637 8.78546ZM24.3688 1.06566C24.3688 0.476802 24.8407 0 25.423 0C26.0053 0 26.4768 0.477241 26.4768 1.06566C26.4768 1.65452 26.0053 2.13133 25.423 2.13133C24.8407 2.13133 24.3688 1.65452 24.3688 1.06566ZM33.4579 7.87976C33.4579 8.03576 33.4579 8.0819 33.5633 8.17814L34.1535 8.76041V8.78546H31.5221V7.51018C31.4076 7.90127 31.1708 8.24539 30.8465 8.49213C30.5222 8.73887 30.1274 8.87524 29.7199 8.88126C28.5532 8.88126 27.9279 8.0217 27.9279 6.39442C27.9279 5.60956 27.9279 4.74956 27.9525 3.78365C27.962 3.73063 27.9573 3.67603 27.9387 3.62545C27.9202 3.57487 27.8885 3.53012 27.847 3.49581L27.2678 2.90915V2.8841H29.8645V6.12767C29.8645 7.19334 30.0188 7.90392 30.6792 7.90392C30.8544 7.89254 31.024 7.83753 31.1725 7.74389C31.321 7.65026 31.4438 7.52097 31.5296 7.3678V3.81485C31.5378 3.76028 31.5325 3.70451 31.5141 3.65248C31.4958 3.60044 31.4648 3.55372 31.4241 3.51647L30.841 2.90915V2.8841H33.4583V7.87932L33.4579 7.87976ZM42.3681 8.78502C42.3681 8.59342 42.4033 6.14964 42.4033 5.58803C42.4033 4.52237 42.2381 3.78717 41.4967 3.78717C41.3122 3.79316 41.1317 3.84261 40.9699 3.93149C40.8081 4.02037 40.6696 4.14618 40.5655 4.29869C40.6399 4.63094 40.6753 4.97073 40.671 5.31118C40.671 6.04989 40.6464 6.99119 40.6358 7.93293C40.6263 7.98595 40.631 8.04055 40.6496 8.09113C40.6681 8.14171 40.6998 8.18646 40.7413 8.22077L41.3315 8.76788V8.79249H38.6895C38.6895 8.61495 38.7247 6.15668 38.7247 5.59506C38.7247 4.51182 38.5594 3.7942 37.8286 3.7942C37.4683 3.80738 37.1396 4.00514 36.9572 4.31978V7.94348C36.9572 8.09992 36.9572 8.13551 37.0627 8.23131L37.6388 8.77843V8.80304H35.025V3.8298C35.0333 3.77515 35.028 3.7193 35.0096 3.66718C34.9912 3.61505 34.9603 3.56827 34.9195 3.53097L34.3399 2.90959V2.88454H36.9576V4.14928C37.2007 3.31432 37.9741 2.75359 38.8341 2.78874C39.7051 2.78874 40.2957 3.27917 40.5449 4.20992C40.6773 3.79353 40.94 3.43068 41.2942 3.17483C41.6484 2.91897 42.0754 2.78363 42.5123 2.78874C43.679 2.78874 44.3395 3.65885 44.3395 5.30371C44.3395 6.089 44.3149 6.98416 44.3044 7.92546C44.2943 7.97986 44.3002 8.03602 44.3214 8.08712C44.3426 8.13822 44.3782 8.18205 44.4239 8.2133L45 8.76041V8.78546H42.3686L42.3681 8.78502ZM9.48638 8.01115L10.2624 8.76041V8.78546H6.32411V8.76041L7.11468 8.01115C7.15621 7.97684 7.18787 7.9321 7.2064 7.88152C7.22493 7.83093 7.22968 7.77633 7.22014 7.72331V2.93068C7.22014 2.72854 7.22014 2.45476 7.2553 2.22053L4.59927 8.88126H4.56763L1.81668 2.75315C1.75648 2.60066 1.7389 2.58967 1.70023 2.48684V6.50472C1.66725 6.77355 1.71241 7.04618 1.8303 7.29002L2.93728 8.76041V8.78546H0V8.76041L1.10653 7.28606C1.22348 7.04334 1.26861 6.77224 1.23661 6.50472V2.06409C1.25489 1.84593 1.18989 1.62895 1.05468 1.45677L0.2707 0.429781V0.405172H3.08142L5.4351 5.59506L7.50798 0.405172H10.2589V0.429781L9.48638 1.29989C9.44077 1.33377 9.40545 1.37964 9.38435 1.43239C9.36325 1.48515 9.35719 1.54272 9.36685 1.59871V7.72331C9.35676 7.77771 9.36268 7.83387 9.3839 7.88497C9.40512 7.93607 9.44072 7.9799 9.48638 8.01115V8.01115ZM12.5674 5.60956V5.63417C12.5674 7.15467 13.3439 7.7655 14.254 7.7655C14.6271 7.77754 14.9957 7.68005 15.314 7.48505C15.6324 7.29005 15.8867 7.00608 16.0456 6.66819H16.0702C15.7538 8.17111 14.8336 8.88126 13.4564 8.88126C11.9701 8.88126 10.5683 7.97556 10.5683 5.87587C10.5683 3.66984 11.9737 2.78874 13.5267 2.78874C14.7773 2.78874 16.1089 3.38551 16.1089 5.30415V5.60956H12.5674V5.60956ZM12.5674 5.30415H14.2997V4.99477C14.2997 3.43165 13.9797 3.01594 13.4986 3.01594C12.9154 3.01594 12.5603 3.63776 12.5603 5.30415H12.5674V5.30415Z" fill="#7E7E7E"/>
</svg>
