<svg width="69" height="25" viewBox="0 0 69 25" fill="none" xmlns="http://www.w3.org/2000/svg">
<path d="M63.135 18.7106C62.504 18.0641 61.4576 17.6291 60.3453 17.4432C59.2189 17.2613 58.0381 17.2819 56.8387 17.5306C54.5232 18.0301 52.728 19.2836 50.945 20.3454C49.1677 21.4331 47.1542 22.4156 44.8624 22.976C44.273 23.118 43.7456 23.2238 43.1011 23.3053C42.529 23.3774 41.9088 23.4168 41.3066 23.415C40.0957 23.4177 38.8739 23.252 37.7616 22.9231C36.984 22.6938 36.2614 22.3645 35.6534 21.9617C35.7136 21.9084 35.7757 21.856 35.8326 21.8005C36.6435 21.0182 37.0698 20.0774 37.1523 19.1371C37.2246 18.1905 36.904 17.2416 36.12 16.4388C35.9626 16.2789 35.7821 16.1315 35.5901 15.9917C36.0854 15.7229 36.6454 15.5168 37.2394 15.3699C39.4096 14.8479 41.8698 15.0769 43.6394 15.8573C45.423 16.6207 46.3574 18.1887 45.6829 19.3884C45 20.5846 43.1837 21.2405 41.7123 21.1513C40.1936 21.0738 39.0723 20.2889 38.8835 19.5524C38.6877 18.7944 39.3251 18.2294 39.7872 18.0202C40.0272 17.9069 40.2448 17.8625 40.385 17.8392C40.5373 17.8262 40.6179 17.8177 40.6179 17.8177C40.655 17.8142 40.6768 17.794 40.6736 17.768C40.6698 17.7434 40.6365 17.7263 40.6032 17.7281C40.6211 17.7402 40.248 17.6986 39.7034 17.932C39.1965 18.151 38.488 18.7357 38.6672 19.5802C38.8528 20.3924 40.0304 21.2566 41.6765 21.3735C43.2976 21.4945 45.2669 20.8382 46.0989 19.5054C46.9123 18.1398 45.9165 16.3918 43.9696 15.5047C42.0291 14.6087 39.4186 14.3386 36.9987 14.8766C36.2979 15.0348 35.6048 15.2874 34.9987 15.6198C34.3933 15.2874 33.6995 15.0348 32.9968 14.8766C30.5795 14.3386 27.9658 14.6087 26.0259 15.5047C24.079 16.3918 23.0838 18.1398 23.8979 19.5054C24.7293 20.8377 26.6979 21.4945 28.3197 21.3735C29.967 21.2566 31.1453 20.3924 31.3277 19.5802C31.5107 18.7357 30.799 18.151 30.296 17.932C29.7501 17.6986 29.3782 17.7402 29.3962 17.7281C29.3597 17.7259 29.327 17.7429 29.3232 17.768C29.3194 17.794 29.345 17.8142 29.3802 17.8177C29.3802 17.8177 29.4576 17.8262 29.6118 17.8392C29.752 17.8625 29.9702 17.9069 30.2134 18.0202C30.6736 18.2294 31.3117 18.7944 31.1152 19.5524C30.927 20.2889 29.8032 21.0738 28.2851 21.1513C26.8144 21.24 25 20.5846 24.3146 19.3884C23.6394 18.1887 24.577 16.6207 26.3587 15.8573C28.1283 15.0769 30.5904 14.8479 32.7574 15.3699C33.352 15.5164 33.912 15.7229 34.408 15.9917C34.216 16.1315 34.0355 16.2789 33.8781 16.4383C33.0934 17.2412 32.7754 18.1896 32.8432 19.1366C32.9309 20.0774 33.3571 21.0178 34.1686 21.8C34.2256 21.8551 34.287 21.9071 34.3466 21.9604C33.7392 22.3631 33.016 22.6929 32.2358 22.9222C31.1235 23.2511 29.9037 23.4164 28.6909 23.4142C28.0893 23.4159 27.4698 23.3765 26.8989 23.3044C26.2512 23.2229 25.7245 23.1167 25.135 22.9751C22.8438 22.4151 20.8323 21.4322 19.055 20.3445C17.2694 19.2827 15.4736 18.0292 13.1574 17.5297C11.9587 17.281 10.7779 17.2604 9.65151 17.4423C8.53919 17.6287 7.49343 18.0632 6.86175 18.7097C6.23199 19.3432 6.08671 20.1617 6.27935 20.8149C6.47391 21.4819 6.91359 22.0536 7.47999 22.494C8.62495 23.4016 10.1488 23.6641 11.2842 23.7152C12.449 23.7614 13.3424 23.6243 13.9274 23.5087C14.5168 23.3909 14.8138 23.3008 14.8138 23.3008C14.8432 23.2914 14.8624 23.265 14.8534 23.2448C14.8406 23.2211 14.8067 23.2072 14.7722 23.2157C14.7722 23.2157 14.465 23.2833 13.8768 23.3564C13.2938 23.4222 12.4144 23.5114 11.3322 23.3998C10.2742 23.2851 8.9424 22.967 8.04256 22.1629C7.58943 21.77 7.26111 21.2597 7.15167 20.7136C7.05503 20.159 7.20544 19.6039 7.6976 19.1246C8.6704 18.1761 10.9123 17.9033 12.7549 18.3464C14.7056 18.8222 16.3594 19.9256 18.191 21.0586C20.0509 22.1656 22.2211 23.2161 24.7536 23.7806C27.233 24.3644 30.1814 24.3756 32.655 23.5804C33.5197 23.3102 34.319 22.9361 35.0013 22.4702C35.6829 22.9361 36.4829 23.3102 37.3469 23.5804C39.8205 24.3756 42.769 24.3644 45.2458 23.7806C47.7782 23.2161 49.9485 22.1656 51.8122 21.0586C53.6406 19.9256 55.2938 18.8217 57.2451 18.3464C59.087 17.9033 61.3296 18.1761 62.3043 19.1246C62.7971 19.6039 62.945 20.159 62.8509 20.7136C62.7402 21.2597 62.4093 21.7704 61.9581 22.1629C61.0595 22.967 59.7258 23.2856 58.6704 23.3998C57.5837 23.5114 56.7075 23.4222 56.12 23.3564C55.535 23.2833 55.2272 23.2157 55.2272 23.2157C55.1971 23.2103 55.16 23.2211 55.1485 23.2435C55.1363 23.2659 55.153 23.2918 55.1882 23.3013C55.1882 23.3013 55.4864 23.3913 56.0726 23.5091C56.6576 23.6247 57.551 23.7618 58.7165 23.7157C59.8506 23.6646 61.3738 23.4016 62.5206 22.4944C63.0851 22.0545 63.5274 21.4824 63.7206 20.8153C63.9139 20.1617 63.7674 19.3432 63.135 18.7106ZM33.7302 19.099C33.6342 18.2801 33.9286 17.4284 34.5277 16.7838C34.6698 16.6337 34.8298 16.4966 35 16.3685C35.1702 16.4966 35.3302 16.6337 35.473 16.7838C36.0733 17.4289 36.3638 18.2805 36.271 19.099C36.1757 19.9211 35.7763 20.7477 35.0582 21.4098C35.0397 21.4273 35.0186 21.4434 35 21.4604C34.9808 21.4434 34.9597 21.4273 34.9411 21.4098C34.2243 20.7477 33.8262 19.9211 33.7302 19.099Z" fill="#FE620D"/>
</svg>
