<!-- <svg xmlns="http://www.w3.org/2000/svg" viewBox="0 0 841.9 595.3">
    <g fill="#61DAFB">
        <path d="M666.3 296.5c0-32.5-40.7-63.3-103.1-82.4 14.4-63.6 8-114.2-20.2-130.4-6.5-3.8-14.1-5.6-22.4-5.6v22.3c4.6 0 8.3.9 11.4 2.6 13.6 7.8 19.5 37.5 14.9 75.7-1.1 9.4-2.9 19.3-5.1 29.4-19.6-4.8-41-8.5-63.5-10.9-13.5-18.5-27.5-35.3-41.6-50 32.6-30.3 63.2-46.9 84-46.9V78c-27.5 0-63.5 19.6-99.9 53.6-36.4-33.8-72.4-53.2-99.9-53.2v22.3c20.7 0 51.4 16.5 84 46.6-14 14.7-28 31.4-41.3 49.9-22.6 2.4-44 6.1-63.6 11-2.3-10-4-19.7-5.2-29-4.7-38.2 1.1-67.9 14.6-75.8 3-1.8 6.9-2.6 11.5-2.6V78.5c-8.4 0-16 1.8-22.6 5.6-28.1 16.2-34.4 66.7-19.9 130.1-62.2 19.2-102.7 49.9-102.7 82.3 0 32.5 40.7 63.3 103.1 82.4-14.4 63.6-8 114.2 20.2 130.4 6.5 3.8 14.1 5.6 22.5 5.6 27.5 0 63.5-19.6 99.9-53.6 36.4 33.8 72.4 53.2 99.9 53.2 8.4 0 16-1.8 22.6-5.6 28.1-16.2 34.4-66.7 19.9-130.1 62-19.1 102.5-49.9 102.5-82.3zm-130.2-66.7c-3.7 12.9-8.3 26.2-13.5 39.5-4.1-8-8.4-16-13.1-24-4.6-8-9.5-15.8-14.4-23.4 14.2 2.1 27.9 4.7 41 7.9zm-45.8 106.5c-7.8 13.5-15.8 26.3-24.1 38.2-14.9 1.3-30 2-45.2 2-15.1 0-30.2-.7-45-1.9-8.3-11.9-16.4-24.6-24.2-38-7.6-13.1-14.5-26.4-20.8-39.8 6.2-13.4 13.2-26.8 20.7-39.9 7.8-13.5 15.8-26.3 24.1-38.2 14.9-1.3 30-2 45.2-2 15.1 0 30.2.7 45 1.9 8.3 11.9 16.4 24.6 24.2 38 7.6 13.1 14.5 26.4 20.8 39.8-6.3 13.4-13.2 26.8-20.7 39.9zm32.3-13c5.4 13.4 10 26.8 13.8 39.8-13.1 3.2-26.9 5.9-41.2 8 4.9-7.7 9.8-15.6 14.4-23.7 4.6-8 8.9-16.1 13-24.1zM421.2 430c-9.3-9.6-18.6-20.3-27.8-32 9 .4 18.2.7 27.5.7 9.4 0 18.7-.2 27.8-.7-9 11.7-18.3 22.4-27.5 32zm-74.4-58.9c-14.2-2.1-27.9-4.7-41-7.9 3.7-12.9 8.3-26.2 13.5-39.5 4.1 8 8.4 16 13.1 24 4.7 8 9.5 15.8 14.4 23.4zM420.7 163c9.3 9.6 18.6 20.3 27.8 32-9-.4-18.2-.7-27.5-.7-9.4 0-18.7.2-27.8.7 9-11.7 18.3-22.4 27.5-32zm-74 58.9c-4.9 7.7-9.8 15.6-14.4 23.7-4.6 8-8.9 16-13 24-5.4-13.4-10-26.8-13.8-39.8 13.1-3.1 26.9-5.8 41.2-7.9zm-90.5 125.2c-35.4-15.1-58.3-34.9-58.3-50.6 0-15.7 22.9-35.6 58.3-50.6 8.6-3.7 18-7 27.7-10.1 5.7 19.6 13.2 40 22.5 60.9-9.2 20.8-16.6 41.1-22.2 60.6-9.9-3.1-19.3-6.5-28-10.2zM310 490c-13.6-7.8-19.5-37.5-14.9-75.7 1.1-9.4 2.9-19.3 5.1-29.4 19.6 4.8 41 8.5 63.5 10.9 13.5 18.5 27.5 35.3 41.6 50-32.6 30.3-63.2 46.9-84 46.9-4.5-.1-8.3-1-11.3-2.7zm237.2-76.2c4.7 38.2-1.1 67.9-14.6 75.8-3 1.8-6.9 2.6-11.5 2.6-20.7 0-51.4-16.5-84-46.6 14-14.7 28-31.4 41.3-49.9 22.6-2.4 44-6.1 63.6-11 2.3 10.1 4.1 19.8 5.2 29.1zm38.5-66.7c-8.6 3.7-18 7-27.7 10.1-5.7-19.6-13.2-40-22.5-60.9 9.2-20.8 16.6-41.1 22.2-60.6 9.9 3.1 19.3 6.5 28.1 10.2 35.4 15.1 58.3 34.9 58.3 50.6-.1 15.7-23 35.6-58.4 50.6zM320.8 78.4z"/>
        <circle cx="420.9" cy="296.5" r="45.7"/>
        <path d="M520.5 78.1z"/>
    </g>
</svg> -->

<svg width="84" height="144" viewBox="0 0 84 144" xmlns="http://www.w3.org/2000/svg">
<path d="M33.9917 59.3965L34.1129 65.698C34.9208 72.2015 38.536 75.4532 44.9587 75.4532C45.2819 75.4532 46.0494 75.3724 47.2612 75.2108C48.473 75.0493 49.2203 74.9281 49.5031 74.8473C48.7356 76.0187 46.7361 76.6044 43.5045 76.6044C40.273 76.6044 37.7888 75.7966 36.0518 74.1808C34.3552 72.6054 33.1232 70.1616 32.3557 66.8493L32.2951 59.6995C32.2951 56.9123 32.5981 52.7921 33.204 47.3389C33.8099 41.8857 34.1129 37.7856 34.1129 35.0388V31.2822L14.6025 49.6413L13.4513 58.8512C13.1685 61.3153 12.1586 63.8399 10.4217 66.4251C8.72514 69.0103 6.76602 70.303 4.54434 70.303C3.4537 70.303 2.54483 69.9192 1.81774 69.1517C1.09064 68.3842 0.747292 67.4148 0.787686 66.2433C0.989657 64.1428 1.79754 61.8808 3.21134 59.4571C4.66553 56.9931 6.01873 55.0542 7.27095 53.6404C8.56357 52.2266 10.2197 50.5098 12.2394 48.4901C12.3202 48.0862 12.3606 46.8945 12.3606 44.9152C12.3606 42.8955 11.9567 40.0881 11.1488 36.493C11.0276 36.0891 10.6439 35.8871 9.99756 35.8871C9.95716 35.8871 9.77539 35.9073 9.45224 35.9477C6.62465 38.1694 3.91824 39.2802 1.33301 39.2802C1.33301 38.4723 1.53498 37.9674 1.93892 37.7654C2.1005 37.6847 2.36306 37.5837 2.72661 37.4625C3.13055 37.3009 3.4941 37.1595 3.81725 37.0384C4.1808 36.9172 5.33203 36.3517 7.27095 35.3418C9.25027 34.2915 10.3611 33.726 10.6035 33.6452L11.1488 33.5846C11.5931 33.5846 11.9769 33.7664 12.3 34.13C12.6232 34.4531 12.8252 34.8571 12.9059 35.3418L14.6631 47.2783L35.2035 27.3437L36.3548 28.4344L36.5971 31.9487C36.5971 35.0186 36.1528 39.5832 35.2641 45.6423C34.4158 51.7014 33.9917 56.2862 33.9917 59.3965ZM8.36159 55.3975C6.9478 56.8113 5.69558 58.4877 4.60494 60.4266C3.55469 62.3655 3.02956 64.2236 3.02956 66.001C3.02956 67.7379 3.43351 68.6064 4.24139 68.6064C5.65518 68.6064 6.9276 67.9601 8.05864 66.6675C9.18968 65.3345 10.0582 63.7187 10.6641 61.8202C11.8355 57.9423 12.4212 54.6502 12.4212 51.9438H11.7547C11.6739 51.9438 11.169 52.4083 10.2399 53.3374C9.35125 54.2665 8.72514 54.9532 8.36159 55.3975Z" />
<path d="M60.7348 100.958L58.4323 85.5067C58.4323 85.4664 58.4323 85.426 58.4323 85.3856C58.4323 85.3452 58.4121 85.3048 58.3717 85.2644C58.2909 85.1836 58.1294 85.0624 57.887 84.9008L57.4023 85.9915C56.352 90.1925 55.6047 93.0807 55.1604 94.656C53.7062 100.028 51.9693 104.775 49.9495 108.895C49.8688 109.137 49.7678 109.299 49.6466 109.38C49.5254 109.42 49.4446 109.46 49.4042 109.501C49.3638 109.541 49.2628 109.561 49.1013 109.561H48.4348C46.3343 109.561 44.7185 106.693 43.5875 100.958C43.2239 99.1398 43.0421 97.0393 43.0421 94.656L43.2845 70.6013H41.8303L34.4382 73.9944C34.115 73.9944 33.6303 74.1156 32.984 74.358C32.3781 74.5599 32.0549 74.6609 32.0145 74.6609H31.8328C30.8633 74.6609 30.3786 74.358 30.3786 73.752C30.3786 73.2673 30.6007 72.9846 31.0451 72.9038C31.0451 72.9038 32.1761 72.722 34.4382 72.3584C34.8825 72.0757 36.4377 71.3688 39.1037 70.2377C41.7697 69.1067 43.2643 68.4604 43.5875 68.2988L44.1934 68.2382C44.9609 68.2382 45.3446 68.7028 45.3446 69.6318C45.3446 71.4092 45.1426 74.0752 44.7387 77.6299C44.3348 81.1846 44.1328 83.8304 44.1328 85.5673L44.1934 87.7486C44.1934 88.6777 44.3348 90.8792 44.6175 94.3531C44.9407 97.7866 45.183 99.9881 45.3446 100.958C45.5062 101.927 45.8899 103.22 46.4958 104.835C47.1018 106.451 47.7481 107.259 48.4348 107.259C48.8791 107.259 49.1821 107.057 49.3436 106.653L57.887 80.2959L58.4929 79.7506C59.1796 80.1949 59.5634 80.7604 59.6441 81.4471L62.5525 100.352C62.7141 102.291 63.6432 104.411 65.3397 106.714C67.0363 109.016 68.8136 110.167 70.6718 110.167C71.3989 110.167 72.1259 109.864 72.853 109.259C73.5801 108.612 74.2062 107.784 74.7314 106.774C75.7412 104.795 76.4279 103.22 76.7915 102.048C78.0841 98.9378 79.1747 95.4639 80.0634 91.6265C80.9925 87.789 81.457 84.6383 81.457 82.1742C81.457 79.6698 81.1339 77.2865 80.4875 75.0245C79.8816 72.722 78.791 70.6417 77.2156 68.7836C75.6402 66.885 73.8023 65.9358 71.7018 65.9358C70.5708 65.9358 69.9851 65.956 69.9447 65.9964L68.7934 66.6023C68.7126 66.6023 68.5915 66.5215 68.4299 66.3599C68.3087 66.1983 68.2683 66.057 68.3087 65.9358C68.3491 65.7742 68.4097 65.6126 68.4905 65.451C68.5713 65.2491 68.6722 65.0875 68.7934 64.9663C68.9146 64.8451 69.0156 64.7441 69.0964 64.6634C69.1772 64.5422 69.3186 64.4614 69.5205 64.421C69.7225 64.3806 69.8639 64.3402 69.9447 64.2998C70.0255 64.219 70.288 64.1786 70.7324 64.1786H71.823C73.8427 64.1786 75.5998 64.7643 77.0944 65.9358C78.589 67.0668 79.7201 68.5412 80.4875 70.3589C81.255 72.1767 81.8004 74.0146 82.1235 75.8727C82.4871 77.6905 82.6688 79.5082 82.6688 81.3259C82.6688 83.1437 82.3861 85.7087 81.8206 89.021C81.2954 92.293 80.5683 95.7265 79.6393 99.3216C78.7102 102.876 77.4378 105.966 75.822 108.592C74.2466 111.177 72.5703 112.47 70.7929 112.47C68.2481 112.47 66.0668 111.258 64.2491 108.834C62.4313 106.37 61.2599 103.745 60.7348 100.958Z"/>
</svg>

